<svg xmlns="http://www.w3.org/2000/svg" xmlns:xlink="http://www.w3.org/1999/xlink" version="1.1" x="0px" y="0px" viewBox="0 0 66 82.5" enable-background="new 0 0 66 66" xml:space="preserve"><g><path d="M54.5,17.2V4.4C54.5,2.5,53,1,51.1,1H14.9c-1.9,0-3.4,1.5-3.4,3.4v12.8l-8.8,8.8c-0.2,0.2-0.3,0.4-0.3,0.7v34.8   c0,0.9,0.4,1.8,1,2.4c0,0,0,0,0,0c0,0,0,0,0,0c0.6,0.6,1.5,1,2.4,1h54.4c0.9,0,1.7-0.4,2.4-1c0,0,0,0,0.1,0c0,0,0,0,0-0.1   c0.6-0.6,1-1.4,1-2.3V26.8c0,0,0,0,0,0c0-0.3-0.1-0.5-0.3-0.7L54.5,17.2z M54.5,20.1l6.7,6.7l-6.7,6.7V20.1z M13.5,4.4   c0-0.8,0.6-1.4,1.4-1.4h36.2c0.8,0,1.4,0.6,1.4,1.4v31.1L33,55L13.5,35.5V4.4z M11.5,20.1v13.4l-6.7-6.7L11.5,20.1z M4.4,61.6V29.2   l16.2,16.2L4.4,61.6z M5.8,63L22,46.8l10.3,10.3c0.2,0.2,0.5,0.3,0.7,0.3s0.5-0.1,0.7-0.3L44,46.8L60.2,63H5.8z M61.6,61.6   L45.4,45.4l16.2-16.2V61.6z"/><path d="M39.2,32.4c-0.3-0.5-0.9-0.7-1.3-0.4c-1.7,0.9-3.5,1.3-5.7,1.3c-4.8,0-9.6-3.4-9.6-9.9c0-6.1,4-12.4,11.7-12.4   c5.4,0,9.1,3.7,9.1,9.1c0,4.8-2.6,7.3-5.2,7.3c-0.4,0-1.4-0.2-1.6-1.5c0.8-1.1,1.3-2.3,1.5-3.5l1-4.9c0.1-0.5-0.2-1-0.7-1.2   c-0.8-0.2-1.7-0.3-2.6-0.3c-4.6,0-8.3,3.9-8.3,8.8c0,2.6,1.6,4.3,4,4.3c1.2,0,2.5-0.6,3.5-1.4c0.7,1.2,1.9,1.8,3.1,1.8   c3.6,0,7.2-3.2,7.2-9.3C45.4,13.5,40.8,9,34.3,9c-7.8,0-13.7,6.2-13.7,14.4c0,6.9,4.9,11.9,11.6,11.9c2.6,0,4.7-0.5,6.7-1.5   C39.3,33.4,39.5,32.8,39.2,32.4z M31.6,26.9c-1.7,0-2-1.2-2-2.3c0-3.7,2.9-6.8,6.3-6.8c0.4,0,0.8,0,1.1,0.1l-0.8,3.9   C35.8,24.2,33.7,26.9,31.6,26.9z"/></g><text x="0" y="81" fill="#000000" font-size="5px" font-weight="bold" font-family="'Helvetica Neue', Helvetica, Arial-Unicode, Arial, Sans-serif">Created by ProSymbols</text><text x="0" y="86" fill="#000000" font-size="5px" font-weight="bold" font-family="'Helvetica Neue', Helvetica, Arial-Unicode, Arial, Sans-serif">from the Noun Project</text></svg>