<svg xmlns="http://www.w3.org/2000/svg" xmlns:xlink="http://www.w3.org/1999/xlink" version="1.1" x="0px" y="0px" viewBox="0 0 90 112.5" enable-background="new 0 0 90 90" xml:space="preserve"><g><path d="M76.205,56.244H59.203V34.268H49.84v-7.863c0-11.16-9.079-20.238-20.238-20.238c-11.159,0-20.238,9.079-20.238,20.238   v7.863H0V74.75h28.13c1.931,5.29,6.999,9.084,12.949,9.084h35.126C83.812,83.834,90,77.646,90,70.039S83.812,56.244,76.205,56.244z    M12.364,26.405c0-9.505,7.733-17.238,17.238-17.238c9.505,0,17.238,7.733,17.238,17.238v7.863H12.364V26.405z M3,71.75V37.268   h53.203v18.976H41.079c-2.196,0-4.266,0.529-6.111,1.446l-0.564-3.658c0.962-1.129,1.501-2.578,1.501-4.087   c0-3.473-2.828-6.297-6.303-6.297s-6.302,2.825-6.302,6.297c0,1.513,0.54,2.965,1.502,4.097l-1.485,9.598l1.482,1.729h3.315   c-0.528,1.461-0.831,3.029-0.831,4.67c0,0.58,0.048,1.149,0.118,1.711H3z M29.62,62.369h-3.071l1.33-8.595l-0.478-1.354   c-0.7-0.623-1.102-1.524-1.102-2.475c0-1.818,1.481-3.298,3.302-3.298c1.821,0,3.303,1.479,3.303,3.298   c0,0.942-0.399,1.839-1.094,2.458l-0.485,1.349l0.885,5.736C31.219,60.323,30.344,61.291,29.62,62.369z M76.205,80.834H41.079   c-5.952,0-10.795-4.843-10.795-10.795s4.843-10.795,10.795-10.795h35.126C82.157,59.244,87,64.087,87,70.039   S82.157,80.834,76.205,80.834z"/><path d="M44.942,67.135c-1.602,0-2.905,1.303-2.905,2.904s1.303,2.904,2.905,2.904c1.602,0,2.905-1.303,2.905-2.904   S46.544,67.135,44.942,67.135z"/><path d="M54.075,67.135c-1.602,0-2.905,1.303-2.905,2.904s1.304,2.904,2.905,2.904s2.905-1.303,2.905-2.904   S55.677,67.135,54.075,67.135z"/><circle cx="63.208" cy="70.039" r="2.904"/><path d="M72.342,67.135c-1.602,0-2.905,1.303-2.905,2.904s1.304,2.904,2.905,2.904s2.905-1.303,2.905-2.904   S73.943,67.135,72.342,67.135z"/></g><text x="0" y="105" fill="#000000" font-size="5px" font-weight="bold" font-family="'Helvetica Neue', Helvetica, Arial-Unicode, Arial, Sans-serif">Created by João Paulo</text><text x="0" y="110" fill="#000000" font-size="5px" font-weight="bold" font-family="'Helvetica Neue', Helvetica, Arial-Unicode, Arial, Sans-serif">from the Noun Project</text></svg>